<?xml version="1.0" standalone="no"?>
<!DOCTYPE svg PUBLIC "-//W3C//DTD SVG 1.1//EN" "http://www.w3.org/Graphics/SVG/1.1/DTD/svg11.dtd">
<svg width="100%" height="100%" viewBox="0 0 20 20" version="1.1" xmlns="http://www.w3.org/2000/svg" xmlns:xlink="http://www.w3.org/1999/xlink" xml:space="preserve" style="fill-rule:evenodd;clip-rule:evenodd;stroke-linejoin:round;stroke-miterlimit:1.41421;">
    <g id="Layer1">
        <path d="M15,19L15,20L5,20L5,19L3,19L3,18L2,18L2,17L1,17L1,15L0,15L0,5L1,5L1,3L2,3L2,2L3,2L3,1L5,1L5,0L15,0L15,1L17,1L17,2L18,2L18,3L19,3L19,5L20,5L20,15L19,15L19,17L18,17L18,18L17,18L17,19L15,19Z" style="fill:rgb(80,159,255);"/>
        <path d="M15,19L15,20L5,20L5,19L3,19L3,18L2,18L2,17L1,17L1,15L0,15L0,12L1,12L1,14L2,14L2,15L3,15L3,16L5,16L5,17L15,17L15,16L17,16L17,15L18,15L18,14L19,14L19,12L20,12L20,15L19,15L19,17L18,17L18,18L17,18L17,19L15,19Z" style="fill:rgb(44,85,125);"/>
    </g>
</svg>
