<?xml version="1.0" standalone="no"?>
<!DOCTYPE svg PUBLIC "-//W3C//DTD SVG 1.1//EN" "http://www.w3.org/Graphics/SVG/1.1/DTD/svg11.dtd">
<svg width="100%" height="100%" viewBox="0 0 39 39" version="1.1" xmlns="http://www.w3.org/2000/svg" xmlns:xlink="http://www.w3.org/1999/xlink" xml:space="preserve" style="fill-rule:evenodd;clip-rule:evenodd;stroke-linejoin:round;stroke-miterlimit:1.41421;">
    <g id="Layer1">
        <path d="M26,24L26,36L13,36L13,24L0,24L0,12L13,12L13,0L26,0L26,12L39,12L39,24L26,24Z" style="fill:rgb(172,172,172);"/>
        <path d="M26,36L13,36L13,39L26,39L26,36ZM13,24L3.55271e-15,24L3.55271e-15,27L13,27L13,24ZM39,24L26,24L26,27L39,27L39,24Z" style="fill:rgb(79,79,79);"/>
    </g>
</svg>
