<?xml version="1.0" standalone="no"?>
<!DOCTYPE svg PUBLIC "-//W3C//DTD SVG 1.1//EN" "http://www.w3.org/Graphics/SVG/1.1/DTD/svg11.dtd">
<svg width="100%" height="100%" viewBox="0 0 60 20" version="1.1" xmlns="http://www.w3.org/2000/svg" xmlns:xlink="http://www.w3.org/1999/xlink" xml:space="preserve" style="fill-rule:evenodd;clip-rule:evenodd;stroke-linejoin:round;stroke-miterlimit:1.41421;">
    <g id="Layer1">
        <path d="M60,0L35,0L35,1L18,1L18,2L0,2L0,19L18,19L18,18L35,18L34.9999,17L60,17L60,0Z" style="fill:rgb(200,200,200);"/>
        <path d="M60,17L35,17L35,18L18,18L18,19L0,19L0,20L60,20L60,17Z" style="fill:rgb(92,92,92);"/>
    </g>
    <g id="Layer3">
        <g>
            <path d="M15,15L13,15L13,14L11,14L11,13L9,13L9,12L7,12L7,11L5,11L5,10L7,10L7,9L9,9L9,8L11,8L11,7L13,7L13,6L15,6L15,5L17,5L17,16L15,16L15,15Z" style="fill:rgb(180,175,175);"/>
            <path d="M7,10L5,10L5,11L7,11L7,10ZM9,9L7,9L7,10L9,10L9,9ZM11,8L9,8L9,9L11,9L11,8ZM13,7L11,7L11,8L13,8L13,7ZM15,6L13,6L13,7L15,7L15,6ZM17,5L15,5L15,6L17,6L17,5Z" style="fill:rgb(141,137,137);"/>
        </g>
        <g>
            <path d="M44,13L46,13L46,12L48,12L48,11L50,11L50,10L52,10L52,9L54,9L54,8L52,8L52,7L50,7L50,6L48,6L48,5L46,5L46,4L44,4L44,3L42,3L42,14L44,14L44,13Z" style="fill:rgb(180,175,175);"/>
            <path d="M52,8L54,8L54,9L52,9L52,8ZM50,7L52,7L52,8L50,8L50,7ZM48,6L50,6L50,7L48,7L48,6ZM46,5L48,5L48,6L46,6L46,5ZM44,4L46,4L46,5L44,5L44,4ZM42,3L44,3L44,4L42,4L42,3Z" style="fill:rgb(141,137,137);"/>
        </g>
    </g>
</svg>
