<?xml version="1.0" standalone="no"?>
<!DOCTYPE svg PUBLIC "-//W3C//DTD SVG 1.1//EN" "http://www.w3.org/Graphics/SVG/1.1/DTD/svg11.dtd">
<svg width="100%" height="100%" viewBox="0 0 20 20" version="1.1" xmlns="http://www.w3.org/2000/svg" xmlns:xlink="http://www.w3.org/1999/xlink" xml:space="preserve" style="fill-rule:evenodd;clip-rule:evenodd;stroke-linejoin:round;stroke-miterlimit:1.41421;">
    <g id="Layer1">
        <path d="M15,19L15,20L5,20L5,19L3,19L3,18L2,18L2,17L1,17L1,15L0,15L0,7L1,7L1,5L2,5L2,4L3,4L3,3L5,3L5,2L15,2L15,3L17,3L17,4L18,4L18,5L19,5L19,7L20,7L20,15L19,15L19,17L18,17L18,18L17,18L17,19L15,19Z" style="fill:rgb(255,80,80);"/>
        <path d="M15,19L15,20L5,20L5,19L3,19L3,18L2,18L2,17L1,17L1,15L0,15L0,14L1,14L1,16L2,16L2,17L3,17L3,18L5,18L5,19L15,19L15,18L17,18L17,17L18,17L18,16L19,16L19,14L20,14L20,15L19,15L19,17L18,17L18,18L17,18L17,19L15,19Z" style="fill:rgb(125,44,44);"/>
    </g>
</svg>
